<svg xmlns="http://www.w3.org/2000/svg" xmlns:xlink="http://www.w3.org/1999/xlink" viewBox="0 0 1641.07 1080"><defs><style>.cls-1{fill:#fff;}.cls-2{fill:url(#linear-gradient);}.cls-3{fill:url(#linear-gradient-6);}.cls-4{fill:url(#linear-gradient-7);}.cls-5{fill:url(#linear-gradient-8);}.cls-6{fill:url(#linear-gradient-9);}.cls-7{fill:url(#linear-gradient-10);}.cls-8{fill:url(#linear-gradient-11);}.cls-9{fill:url(#linear-gradient-12);}.cls-10{fill:url(#linear-gradient-13);}.cls-11{fill:url(#linear-gradient-14);}.cls-12{fill:url(#linear-gradient-15);}</style><linearGradient id="linear-gradient" x1="8.59" y1="663.13" x2="1641.56" y2="663.13" gradientUnits="userSpaceOnUse"><stop offset="0" stop-color="#D8B75A"/><stop offset="0.05" stop-color="#c08d3e"/><stop offset="0.09" stop-color="#c79848"/><stop offset="0.13" stop-color="#d1aa59"/><stop offset="0.17" stop-color="#e1c46f"/><stop offset="0.21" stop-color="#f2e28a"/><stop offset="0.31" stop-color="#e5cd72"/><stop offset="0.42" stop-color="#dbbd60"/><stop offset="0.5" stop-color="#d8b75a"/><stop offset="0.57" stop-color="#dabb5f"/><stop offset="0.64" stop-color="#e2c76c"/><stop offset="0.72" stop-color="#eedb82"/><stop offset="0.74" stop-color="#f2e28a"/><stop offset="0.82" stop-color="#debf6b"/><stop offset="0.89" stop-color="#cca251"/><stop offset="0.95" stop-color="#c28f41"/><stop offset="1" stop-color="#D8B75A"/></linearGradient><linearGradient id="linear-gradient-6" x1="820.54" y1="606.5" x2="820.54" y2="-35.04" xlink:href="#linear-gradient"/><linearGradient id="linear-gradient-7" x1="812.02" y1="606.5" x2="812.02" y2="-35.04" xlink:href="#linear-gradient"/><linearGradient id="linear-gradient-8" x1="829.05" y1="606.5" x2="829.05" y2="-35.04" xlink:href="#linear-gradient"/><linearGradient id="linear-gradient-9" x1="606.86" y1="606.5" x2="606.86" y2="-35.04" xlink:href="#linear-gradient"/><linearGradient id="linear-gradient-10" x1="508.18" y1="606.5" x2="508.18" y2="-35.04" xlink:href="#linear-gradient"/><linearGradient id="linear-gradient-11" x1="572.88" y1="606.5" x2="572.88" y2="-35.04" xlink:href="#linear-gradient"/><linearGradient id="linear-gradient-12" x1="1034.21" y1="606.5" x2="1034.21" y2="-35.04" xlink:href="#linear-gradient"/><linearGradient id="linear-gradient-13" x1="1132.89" y1="606.5" x2="1132.89" y2="-35.04" xlink:href="#linear-gradient"/><linearGradient id="linear-gradient-14" x1="1068.19" y1="606.5" x2="1068.19" y2="-35.04" xlink:href="#linear-gradient"/><linearGradient id="linear-gradient-15" x1="820.54" y1="606.5" x2="820.54" y2="-35.04" xlink:href="#linear-gradient"/></defs><g id="Layer_2" data-name="Layer 2"><g id="Layer_1-2" data-name="Layer 1"><path class="cls-1" d="M22.87,1001.27v77.19H9.42v-77.19Z"/><path class="cls-1" d="M85.63,1059.49h-.45L61,1023.32v55.14H47.58v-77.19H62l23.49,36.5,23.48-36.5h14.45v77.19H110V1023.1Z"/><path class="cls-1" d="M185.85,1059.49h-.44l-24.15-36.17v55.14H147.81v-77.19h14.44l23.49,36.5,23.49-36.5h14.44v77.19H210.22V1023.1Z"/><path class="cls-1" d="M321.81,1055.19a38.66,38.66,0,0,1-8.39,12.73,40.21,40.21,0,0,1-12.79,8.66,40.65,40.65,0,0,1-16.32,3.2,41.4,41.4,0,0,1-16.32-3.14,38.33,38.33,0,0,1-21-21.23,41.49,41.49,0,0,1,0-30.88,38.89,38.89,0,0,1,8.38-12.73,40.21,40.21,0,0,1,29.11-11.86,41.33,41.33,0,0,1,16.32,3.14,38.39,38.39,0,0,1,21,21.23,41.62,41.62,0,0,1,0,30.88Zm-13.18-25.86a27.1,27.1,0,0,0-5.41-8.77,25.66,25.66,0,0,0-8.32-5.95,26.67,26.67,0,0,0-21.12-.06,25,25,0,0,0-8.21,5.85,26.67,26.67,0,0,0-5.35,8.71,30.29,30.29,0,0,0,0,21.28,27,27,0,0,0,5.4,8.77,25.7,25.7,0,0,0,8.33,5.95,26.64,26.64,0,0,0,21.11.06,25,25,0,0,0,8.22-5.85,26.84,26.84,0,0,0,5.35-8.71,30.29,30.29,0,0,0,0-21.28Z"/><path class="cls-1" d="M398.17,1006.57Q405,1011.87,405,1021a19.69,19.69,0,0,1-.93,6.3,18,18,0,0,1-2.4,4.8,17,17,0,0,1-3.5,3.59,29.65,29.65,0,0,1-4.1,2.65,39.66,39.66,0,0,1,6.19,2.81,20,20,0,0,1,4.82,3.8,15.35,15.35,0,0,1,3.13,5.23,20.52,20.52,0,0,1,1.09,7,19.81,19.81,0,0,1-2,9.14,18.72,18.72,0,0,1-5.78,6.66,27,27,0,0,1-9,4.07,46.12,46.12,0,0,1-11.67,1.38H345.12v-77.19h34.56Q391.34,1001.27,398.17,1006.57Zm-10.59,24.73q4-2.61,4-8a8.69,8.69,0,0,0-3.46-7.37q-3.46-2.61-10.06-2.6H358.57v20.62H377Q383.63,1033.91,387.58,1031.3Zm4.3,32.43a9,9,0,0,0,4-8,8.92,8.92,0,0,0-3.9-7.72q-3.92-2.76-11.93-2.76H358.57v21.18H381Q387.92,1066.44,391.88,1063.73Z"/><path class="cls-1" d="M443.21,1001.27v77.19H429.76v-77.19Z"/><path class="cls-1" d="M467.92,1001.27h13.46v65H522v12.24h-54Z"/><path class="cls-1" d="M552.47,1001.27v77.19H539v-77.19Z"/><path class="cls-1" d="M634.3,1013.51H590.63v19.84h38.71v12.24H590.63v20.63h44.22v12.24H577.18v-77.19H634.3Z"/><path class="cls-1" d="M705.1,1078.46l-19-26.91H669v26.91H655.59v-77.19H690a39.49,39.49,0,0,1,12,1.7,26,26,0,0,1,9,4.86,20.87,20.87,0,0,1,5.68,7.72,27.43,27.43,0,0,1,.61,18.85,22.32,22.32,0,0,1-3.81,6.73,22.57,22.57,0,0,1-5.79,5,28.47,28.47,0,0,1-7.44,3.14l20.84,29.23Zm-4.42-61.69q-4.2-3.27-11.84-3.26H669v26H689q7.31,0,11.62-3.54a11.71,11.71,0,0,0,4.31-9.53Q704.88,1020,700.68,1016.77Z"/><path class="cls-1" d="M832.91,1080l-10.26-10.48a40.94,40.94,0,0,1-10.81,7.34,30.35,30.35,0,0,1-12.9,2.7,31,31,0,0,1-10-1.55,23.11,23.11,0,0,1-7.94-4.46,20.8,20.8,0,0,1-7.22-16.16,20.12,20.12,0,0,1,4.25-13,30.58,30.58,0,0,1,12.18-8.77,35.44,35.44,0,0,1-4.85-8.1,21.36,21.36,0,0,1-1.55-8.11,18.52,18.52,0,0,1,1.55-7.5,18.3,18.3,0,0,1,4.41-6.17,21.86,21.86,0,0,1,7-4.25,25.28,25.28,0,0,1,9.26-1.6,23.2,23.2,0,0,1,8.38,1.44,19.36,19.36,0,0,1,6.45,4,17.81,17.81,0,0,1,4.19,5.95,18.34,18.34,0,0,1,1.49,7.39q0,7.72-4.63,12.51a32.67,32.67,0,0,1-12.35,7.67l13.23,13.45c1.47-2.2,2.9-4.56,4.3-7.06s2.72-5.1,4-7.83l10.26,5.41q-2.32,4.64-4.91,9.1a97.86,97.86,0,0,1-5.57,8.54l12.13,12.35Zm-35.18-36.06a18.21,18.21,0,0,0-7.83,5.68,12.09,12.09,0,0,0-2.43,7.22,10.39,10.39,0,0,0,3.64,8.16,13.5,13.5,0,0,0,9.27,3.2,17.28,17.28,0,0,0,7.6-1.76,26.75,26.75,0,0,0,6.95-5ZM812,1013a9.78,9.78,0,0,0-13,.22,9.38,9.38,0,0,0-2.48,6.78,11.77,11.77,0,0,0,1.32,5.52,31,31,0,0,0,4.52,6.06,27.65,27.65,0,0,0,9-5,9.18,9.18,0,0,0,3.09-7.11A8.51,8.51,0,0,0,812,1013Z"/><path class="cls-1" d="M957.61,1038.65a23.58,23.58,0,0,1-6.63,8.27,29.75,29.75,0,0,1-9.83,5,41.34,41.34,0,0,1-12,1.7H913.73v24.82H900.28v-77.19h30.43a38.49,38.49,0,0,1,12.19,1.81,26.09,26.09,0,0,1,9.26,5.24,23.11,23.11,0,0,1,5.85,8.16,26.83,26.83,0,0,1,2,10.7A25.64,25.64,0,0,1,957.61,1038.65ZM941.73,1017q-4.54-3.48-12.17-3.48H913.73v27.89h15.83q7.74,0,12.22-3.82a12.62,12.62,0,0,0,4.48-10.12Q946.26,1020.48,941.73,1017Z"/><path class="cls-1" d="M1044.6,1078.46h-14.33l-7.83-18.64h-36.5L978,1078.46H964.11l34-77.75h12.57Zm-40.47-61.54L990.9,1047.8h26.58Z"/><path class="cls-1" d="M1083.09,1078.46h-13.68v-64.62h-24.48v-12.57h62.64v12.57h-24.48Z"/><path class="cls-1" d="M1173.85,1078.46l-19-26.91h-17v26.91h-13.45v-77.19h34.41a39.49,39.49,0,0,1,12,1.7,26.08,26.08,0,0,1,9,4.86,20.87,20.87,0,0,1,5.68,7.72,27.43,27.43,0,0,1,.61,18.85,22.32,22.32,0,0,1-3.81,6.73,22.57,22.57,0,0,1-5.79,5,28.47,28.47,0,0,1-7.44,3.14l20.84,29.23Zm-4.42-61.69q-4.2-3.27-11.84-3.26h-19.8v26h19.91q7.3,0,11.62-3.54a11.71,11.71,0,0,0,4.31-9.53Q1173.63,1020,1169.43,1016.77Z"/><path class="cls-1" d="M1221.85,1001.27v77.19H1208.4v-77.19Z"/><path class="cls-1" d="M1284.61,1059.49h-.44L1260,1023.32v55.14h-13.46v-77.19H1261l23.49,36.5,23.49-36.5h14.44v77.19H1309V1023.1Z"/><path class="cls-1" d="M1420.56,1055.19a38.63,38.63,0,0,1-8.38,12.73,40.21,40.21,0,0,1-29.11,11.86,41.33,41.33,0,0,1-16.32-3.14,38.33,38.33,0,0,1-21-21.23,41.49,41.49,0,0,1,0-30.88,38.58,38.58,0,0,1,8.38-12.73,40.21,40.21,0,0,1,12.79-8.66,40.65,40.65,0,0,1,16.32-3.2,41.4,41.4,0,0,1,16.32,3.14,38.33,38.33,0,0,1,21,21.23,41.49,41.49,0,0,1,0,30.88Zm-13.18-25.86a26.91,26.91,0,0,0-5.4-8.77,25.76,25.76,0,0,0-8.32-5.95,25.69,25.69,0,0,0-29.34,5.79,26.84,26.84,0,0,0-5.35,8.71,30.29,30.29,0,0,0,0,21.28,27,27,0,0,0,5.41,8.77,25.66,25.66,0,0,0,8.32,5.95,26.67,26.67,0,0,0,21.12.06,25,25,0,0,0,8.22-5.85,26.81,26.81,0,0,0,5.34-8.71,30.29,30.29,0,0,0,0-21.28Z"/><path class="cls-1" d="M1457.61,1001.27v77.19h-13.45v-77.19Z"/><path class="cls-1" d="M1536.13,1001.27h13.46v77.19h-11.34l-42.47-54.92v54.92h-13.46v-77.19h12.55l41.26,53.37Z"/><path class="cls-1" d="M1631.07,1013.51H1587.4v19.84h38.7v12.24h-38.7v20.63h44.22v12.24H1574v-77.19h57.12Z"/><path class="cls-1" d="M34.5,751.92c1.28-1.65,3.78-3,7.53-4v-4.73H0v4.73c3.71.87,6.24,2.19,7.49,3.91s1.93,4.66,1.93,8.78V927.16c0,4.16-.61,7-1.82,8.71s-3.79,3-7.6,4v4.72H42v-4.72c-3.85-1-6.38-2.3-7.6-4s-1.85-4.55-1.85-8.71V760.63Q32.58,754.45,34.5,751.92Z"/><path class="cls-1" d="M306.09,751.92c1.29-1.65,3.79-3,7.53-4v-4.73h-52.7v4.73c4.83,1.68,7.23,3.78,7.23,6.34q0,2.94-3.55,10L197.22,898.23,130.14,765.49q-4.86-9.57-4.86-11.34c0-2.47,2.4-4.53,7.23-6.21v-4.73H80.38v4.73c3.75.87,6.25,2.19,7.53,3.91s1.92,4.66,1.92,8.78V927.16c0,4.16-.64,7-1.92,8.71s-3.78,3-7.53,4v4.72h39.84v-4.72c-3.75-1-6.25-2.33-7.53-4.05s-1.93-4.63-1.93-8.65V775.28l84.77,169.3L281,775.28V927.16c0,4.12-.61,7-1.85,8.71s-3.75,3-7.6,4v4.72h42.06v-4.72c-3.74-1-6.24-2.33-7.53-4.05s-1.92-4.59-1.92-8.65V760.63Q304.17,754.45,306.09,751.92Z"/><path class="cls-1" d="M576.84,751.92c1.29-1.65,3.82-3,7.53-4v-4.73h-52.7v4.73c4.83,1.68,7.26,3.78,7.26,6.34q0,2.94-3.54,10L468,898.23,400.89,765.49c-3.21-6.38-4.83-10.16-4.83-11.34,0-2.47,2.4-4.53,7.19-6.21v-4.73H351.16v4.73c3.75.87,6.25,2.19,7.53,3.91s1.93,4.66,1.93,8.78V927.16c0,4.16-.65,7-1.93,8.71s-3.78,3-7.53,4v4.72H391v-4.72c-3.75-1-6.25-2.33-7.53-4.05s-1.92-4.63-1.92-8.65V775.28l84.73,169.3,85.51-169.3V927.16c0,4.12-.64,7-1.85,8.71s-3.75,3-7.6,4v4.72h42v-4.72c-3.71-1-6.24-2.33-7.53-4.05s-1.89-4.59-1.89-8.65V760.63C575,756.51,575.6,753.61,576.84,751.92Z"/><path class="cls-1" d="M848.84,805.46a97.38,97.38,0,0,0-27.44-37.91q-32.61-27.85-85.85-27.88-31,.45-53.71,9.14-32.46,12.57-50.14,39.84a100.86,100.86,0,0,0,18.74,131.59q32.41,27.85,85.41,27.89,30.23,0,54.12-9.15,32-12.26,50-40,16.35-25.12,16.37-53.85A104.34,104.34,0,0,0,848.84,805.46Zm-40.71,97.06q-26.43,25.43-72.28,25.39t-72-25.39q-24.21-23.29-24.17-58.71,0-35.23,24.17-58.54,26.43-25.37,71.71-25.38,23.3.15,41.59,6.34,16.5,5.47,31,19,24,22.69,24,59.72Q832.17,879.24,808.13,902.52Z"/><path class="cls-1" d="M1066.56,771.1a46.68,46.68,0,0,0-16.38-17,62.48,62.48,0,0,0-22.14-8.58c-8.24-1.55-19.82-2.36-34.64-2.36H887.46v4.73c3.55,1,6,2.26,7.4,3.85s2.06,3.81,2.06,6.78V929.09c0,3-.71,5.37-2.06,6.92s-3.85,2.87-7.4,3.85v4.72h42v-4.72c-3.51-1-6-2.26-7.36-3.85s-2.06-3.88-2.06-6.92V854H993.4q27.71,0,42.71-4.49a51.35,51.35,0,0,0,24.67-15.87q12.72-14.73,12.7-35.41A53.59,53.59,0,0,0,1066.56,771.1Zm-31.26,57.25a42.51,42.51,0,0,1-14.69,5.13q-8.21,1.37-25,1.35H920.07V762.39h75.52c11.31,0,19.69.43,25.09,1.35a41.65,41.65,0,0,1,14.62,5.16q15,8.82,15,29.78Q1050.32,819.48,1035.3,828.35Z"/><path class="cls-1" d="M1129.72,751.92c1.28-1.65,3.78-3,7.53-4v-4.73h-42.07v4.73c3.75.87,6.25,2.19,7.53,3.91s1.93,4.66,1.93,8.78V927.16c0,4.16-.61,7-1.86,8.71s-3.75,3-7.6,4v4.72h42.07v-4.72c-3.85-1-6.38-2.3-7.63-4s-1.82-4.55-1.82-8.71V760.63Q1127.8,754.45,1129.72,751.92Z"/><path class="cls-1" d="M1333.69,743.21v4.73c3.75,1,6.25,2.33,7.53,4s1.93,4.59,1.93,8.64V872q0,18.13-1.62,25.9a29.35,29.35,0,0,1-6.52,13.33q-14.58,16.66-61.51,16.68-43,0-58.84-14.15a28.35,28.35,0,0,1-8.58-13.94c-1.35-5.37-2.06-14.65-2.06-27.82V760.63c0-4,.65-6.92,1.93-8.64s3.78-3.07,7.53-4v-4.73h-42.07v4.73c3.75.87,6.25,2.19,7.53,3.91s1.92,4.66,1.92,8.78V876.56q0,18.88,3.31,30.05a48.17,48.17,0,0,0,11.75,19.81q20.67,21.72,76.7,21.71,37.47,0,58.64-9.45t28.83-29.51q4.15-11.19,4.16-32.61V760.63c0-4.12.6-7.06,1.89-8.78s3.78-3,7.52-3.91v-4.73Z"/><path class="cls-1" d="M1633.54,751.92c1.29-1.65,3.78-3,7.53-4v-4.73h-52.7v4.73c4.83,1.68,7.23,3.78,7.23,6.34q0,2.94-3.55,10l-67.38,133.92-67.08-132.74q-4.86-9.57-4.86-11.34c0-2.47,2.4-4.53,7.22-6.21v-4.73h-52.12v4.73c3.75.87,6.24,2.19,7.53,3.91s1.92,4.66,1.92,8.78V927.16c0,4.16-.64,7-1.92,8.71s-3.78,3-7.53,4v4.72h39.83v-4.72c-3.74-1-6.24-2.33-7.52-4.05s-1.93-4.63-1.93-8.65V775.28L1523,944.58l85.48-169.3V927.16c0,4.12-.61,7-1.86,8.71s-3.74,3-7.59,4v4.72h42.06v-4.72c-3.75-1-6.24-2.33-7.53-4.05s-1.92-4.59-1.92-8.65V760.63Q1631.62,754.45,1633.54,751.92Z"/><polygon class="cls-2" points="526.35 630.57 534.43 655.44 560.58 655.44 539.42 670.81 547.5 695.68 526.35 680.31 505.19 695.68 513.27 670.81 492.12 655.44 518.26 655.44 526.35 630.57"/><polygon class="cls-2" points="673.43 630.57 681.52 655.44 707.67 655.44 686.51 670.81 694.59 695.68 673.43 680.31 652.28 695.68 660.36 670.81 639.2 655.44 665.35 655.44 673.43 630.57"/><polygon class="cls-2" points="820.52 630.57 828.61 655.44 854.75 655.44 833.6 670.81 841.68 695.68 820.52 680.31 799.37 695.68 807.45 670.81 786.29 655.44 812.44 655.44 820.52 630.57"/><polygon class="cls-2" points="967.61 630.57 975.69 655.44 1001.84 655.44 980.69 670.81 988.77 695.68 967.61 680.31 946.46 695.68 954.54 670.81 933.38 655.44 959.53 655.44 967.61 630.57"/><polygon class="cls-2" points="1114.7 630.57 1122.78 655.44 1148.93 655.44 1127.78 670.81 1135.86 695.68 1114.7 680.31 1093.55 695.68 1101.63 670.81 1080.47 655.44 1106.62 655.44 1114.7 630.57"/><path class="cls-3" d="M820.54,226.48,679.86,367.15V500.63A743.05,743.05,0,0,0,820.54,513.9a742.86,742.86,0,0,0,140.67-13.27V367.15ZM815.64,449h-47.8v-47.8h47.8Zm0-57.63h-47.8v-47.8h47.8ZM873.24,449H825.43v-47.8h47.81Zm0-57.63H825.43v-47.8h47.81Z"/><path class="cls-4" d="M1001.69,112.57a40.31,40.31,0,0,0-10.94-17.45c-20.49-22.11-14.11-49.53-7-62.39a45.63,45.63,0,0,1,5.94-8.51c.64-.71,1.35-1.48,2.23-2.6a5.43,5.43,0,0,0-.17-7.69,5.56,5.56,0,0,0-7.77-.41l-.91.78A54.7,54.7,0,0,1,967,24.63c-7.83,3.41-20.53,6.45-36.63,1.75a4,4,0,0,1-.71-.2,78.75,78.75,0,0,1-8.24-3.51,59.22,59.22,0,0,0-7-8.27C893.12-7,867.67-1.77,853.08,12.1,839,25.54,832.66,49.68,852,71l.51.54,0,0c.2.2.41.37.61.54C858,77.6,864.9,87.25,866.28,98.63c1.42,6.45,1.15,14-.81,22.62-.07.27-.1.5-.13.67-1.08,3.38-2.13,6.08-3.11,8.38-3.07-.78-6-.34-7.8,1.51s-2.36,5-1.42,8.31c-4.38-2.13-8.54-2.3-10.8,0s-2.06,6.51.17,11l-.1.13c-3.38-1-6.58-.67-8.58,1.32s-2.36,5.2-1.35,8.57l-11.81,11.85L693.87,299.6l-8.37-8.37,15.73-15.74a2.19,2.19,0,0,0,0-3L672.5,243.73a2.12,2.12,0,0,0-3,0L660,253.25l-5,5.06a2.13,2.13,0,0,0,0,3l7.52,7.53a2.15,2.15,0,0,0,3,0l3.51-3.55,7.53,7.56a2.1,2.1,0,0,1,0,3L653,299.4a2.1,2.1,0,0,1-3,0l-7.53-7.53,3.51-3.51a2.13,2.13,0,0,0,0-3l-7.53-7.53a2.14,2.14,0,0,0-3,0l-5.07,5-9.52,9.52a2.21,2.21,0,0,0,0,3l28.73,28.73a2.21,2.21,0,0,0,3,0l15.73-15.73,8.37,8.37-21.5,21.47a6.43,6.43,0,0,0-5.67,1.48,6.52,6.52,0,0,0-1.49,5.68l-.1.13a10.63,10.63,0,1,0,12.12,12.12l.1-.13a5.81,5.81,0,0,0,7.16-7.16l153.2-153.2,12.12-12.09,11.81-11.85c3.38,1,6.59.64,8.58-1.35s2.36-5.2,1.35-8.54l.1-.13c4.46,2.22,8.71,2.46,11,.17s2-6.42-.07-10.77c3.27.91,6.34.54,8.3-1.42s2.3-4.76,1.56-7.83a87.21,87.21,0,0,1,8.33-3.11c11.45-2.19,20-3.24,34,2.09a51.21,51.21,0,0,1,5,2.33,64.88,64.88,0,0,0,7.15,8.44c15.26,15.3,36.33,18.33,53.61,7.77C997.47,152.21,1008.58,133.94,1001.69,112.57Zm-87.64,13.57c-12.76-2.66-26.06-1.75-37.54,2.87a70.33,70.33,0,0,0,4.32-21.81l.07-.77c-.3-10.43-1-16.14-4.29-24.82,8.91.17,17.08-3,21.81-7.66,8.91-9,9.39-21,1.12-29.23s-19.48-5.07-21.27-3.31l-.71.74.91.41c5.13,2.43,8.24,5.94,9,10.19a14,14,0,0,1-4.36,12.15c-9.68,9.73-19.81,2.64-23.69-.84-.07-.07-.17-.14-.27-.24-14.39-14.61-10.44-31.76-.71-41.52s27-13.88,41.49.47a.25.25,0,0,0,.13.14c17.83,17.82,15.63,39,13.34,61.3C912,98.16,910.51,112.4,914.05,126.14Zm70.86,19.25c-.2.16-20.19,19.71-40.27-.38-19.11-19.1-16.92-40.91-14.55-64,1.31-13.27,2.7-26.84-.41-39.84a47.6,47.6,0,0,0,5.37.81c9.49,1.52,22.72-.1,32.34-3.81-5.74,14.24-5.74,32-.13,47.46-8.51-.27-16.55,2.47-21.74,7.67-8.95,8.94-9.42,21-1.15,29.2s19.51,5.09,21.27,3.31l.7-.71-.91-.44c-6-2.84-9.28-7.29-9.15-12.53.21-5.67,4.36-11.2,10.17-13.5,6.17-2.47,12.86-.71,18.33,4.76C998.48,117.33,995.21,135.06,984.91,145.39Z"/><path class="cls-5" d="M988.46,324.11a2.21,2.21,0,0,0,3,0l28.69-28.73a2.15,2.15,0,0,0,0-3l-8.78-8.81-.74-.71-5-5a2.15,2.15,0,0,0-3,0l-7.53,7.53a2.15,2.15,0,0,0,0,3l3.51,3.51-7.52,7.53a2.15,2.15,0,0,1-3,0l-23.5-23.5a2.17,2.17,0,0,1,0-3l7.56-7.56,3.51,3.55a2.15,2.15,0,0,0,3,0l7.53-7.53a2.13,2.13,0,0,0,0-3l-5-5.06-.71-.71-8.81-8.81a2.13,2.13,0,0,0-3,0l-28.73,28.73a2.14,2.14,0,0,0,0,3l15.74,15.74-8.38,8.37L832.66,185.05l-12.12-12.12-11.85-11.85c1-3.37.67-6.55-1.32-8.57s-5.2-2.36-8.57-1.32l-.1-.13c2.22-4.46,2.46-8.68.16-11s-6.41-2.1-10.8,0c1-3.28.54-6.35-1.42-8.31s-4.72-2.29-7.79-1.51a82.79,82.79,0,0,1-3.11-8.38c0-.17-.1-.4-.17-.67-1.92-8.61-2.19-16.17-.78-22.62,1.39-11.38,8.28-21,13.14-26.57.2-.17.4-.34.6-.54l0,0L789,71c19.38-21.33,13-45.47-1-58.91C773.41-1.77,748-7,726.59,14.4a60,60,0,0,0-7,8.27,78.56,78.56,0,0,1-8.27,3.51,3.43,3.43,0,0,1-.67.2c-16.14,4.7-28.8,1.66-36.63-1.75A54.77,54.77,0,0,1,658,14.3l-.91-.78a5.54,5.54,0,0,0-7.76.41,5.43,5.43,0,0,0-.17,7.69c.88,1.12,1.59,1.89,2.23,2.6a46.64,46.64,0,0,1,5.94,8.51c7.16,12.86,13.54,40.28-7,62.39a40.11,40.11,0,0,0-10.93,17.45c-6.92,21.37,4.22,39.64,18.29,48.28,17.29,10.56,38.32,7.53,53.61-7.77a62.41,62.41,0,0,0,7.13-8.44,46.91,46.91,0,0,1,5.06-2.33c14-5.33,22.52-4.28,33.93-2.09a84.39,84.39,0,0,1,8.37,3.11c-.74,3.07-.3,6,1.55,7.83s5,2.33,8.31,1.42c-2.13,4.35-2.33,8.5-.07,10.77s6.55,2.05,11-.17l.1.13c-1,3.34-.64,6.55,1.35,8.54s5.2,2.37,8.54,1.35l11.85,11.85,12.12,12.09,153.2,153.2a5.8,5.8,0,0,0,7.12,7.16l.14.13a10.63,10.63,0,1,0,18-9.15,10.4,10.4,0,0,0-5.9-3l-.14-.13a5.79,5.79,0,0,0-7.12-7.16l-21.51-21.47,8.38-8.37ZM696.44,145c-20.09,20.09-40.07.54-40.28.38-10.29-10.33-13.57-28.06.14-42,5.47-5.47,12.15-7.23,18.33-4.76,5.81,2.3,10,7.83,10.13,13.5.17,5.24-3.07,9.69-9.12,12.53l-.94.44.74.71c1.76,1.78,12.93,5,21.27-3.31s7.8-20.26-1.15-29.2c-5.2-5.2-13.27-7.94-21.74-7.67,5.6-15.49,5.6-33.22-.13-47.46C683.31,41.88,696.54,43.5,706,42a49.2,49.2,0,0,0,5.36-.81c-3.1,13-1.75,26.57-.4,39.84C713.35,104.1,715.55,125.91,696.44,145ZM758,64.9c-3.44-3.44-5.07-8-4.32-12.15s3.85-7.76,8.94-10.19l.95-.41-.74-.74c-1.76-1.76-12.93-5-21.24,3.31S733.71,65,742.66,74c4.69,4.69,12.89,7.83,21.8,7.66-3.3,8.68-4,14.39-4.28,24.82l0,.77A72.73,72.73,0,0,0,764.53,129c-11.44-4.62-24.74-5.53-37.54-2.87,3.58-13.74,2.13-28,.68-41.93-2.3-22.34-4.46-43.48,13.37-61.3,0,0,.1-.07.13-.14,14.45-14.35,31.63-10.33,41.46-.47s13.7,26.91-.68,41.52c-.1.1-.2.17-.27.24C777.8,67.54,767.67,74.63,758,64.9Z"/><path class="cls-6" d="M576.44,242.24s32.5,10.83,42.79,11.56,9.75-6,10.11-18.24,7.94-10.47,7.94-10.47c-9.56-5.42-16.43,6.68-16.43,6.68-1.5-4.51,2.21-13.87,10.34-13.75a6.85,6.85,0,0,1,.68-3.67,7,7,0,0,1,3.25-3.16c-24-4-20.22,18.05-20.22,18.05l-26.73-11.1C586.91,235.74,576.44,242.24,576.44,242.24Z"/><path class="cls-7" d="M445.37,424.5c7.22,0,8.12,8.13,8.12,8.13,5.78-11.74-6.14-22-6.14-22,10.47,2.71,11.56,11.2,11.56,11.2,10.11.18,10.65,7.76,10.65,7.76a23.23,23.23,0,0,0-7.94-21.12c10.11.54,11.43,9.29,11.43,9.29,4.07.62,5.54,5,5.54,5a35.79,35.79,0,0,0,.56-8.33,17.3,17.3,0,0,0-12.95-15.54L454,395.62c-2.52-28.89,9-31.42,9-31.42s34-14.76,34.31-46.58c.36-41.53,26.18-55,26.18-55,57.77-23.83,51.09-46.31,52-51.73-33,.82-47.13-24-47.13-24,30.7,18,49.29,15.34,49.29,15.34,11.59-.62,37.16-22,43.74-27.69,11.38-.49,18.14-10,12.32-24-6.5-15.7-.27-18.41-.27-18.41-11.1,1.35-13.16,14.83-13.16,14.83-5.66-13.62,5.49-19.82,5.49-19.82-2-7.54,4.15-9.37,4.15-9.37-22.67-3.42-22.71,22-21.72,32.9-12.65,14.17-26.75,9.06-36.15,25.42-.84-6.36-8.71-14.53-14-18.22s-11.33-6-17.07-8.86a30.65,30.65,0,0,1-13.28-12c2.74,3.32,7.42,4.62,11.69,4s7.35-3.75,11.32-5.41c8.49-3.55,1.81,8.67,1.81,8.67,15.53-6.38,16.61-19.86,7.22-23.48S538.53,138.15,540,119c1.12-14.83,13.08-12.31,18.41-10.43a6.36,6.36,0,0,0,6.71-1.44c4.41-4.55-1.29-11.24-1.29-11.24,4.33-4,.36-9,.36-9l-35.75-9.75c4.06-24.37-32.77-11.37-40.62-30.33-1.65,14,6.5,16.25,6.5,16.25-52.54,1.08-47.13,67.7-47.13,67.7,3.79-23.29,17.88-30.87,17.88-30.87-21.13,26,16.25,52-8.67,80.71,14.76-3.69,20.11-17.18,21.38-21.11-3.27,11.11.34,23.09,3.69,34.26C484.91,205.26,488,218,483.07,229c-4.27,9.45-13.59,15.43-20.34,23.31a50.5,50.5,0,0,0-3.89,5.16,116.82,116.82,0,0,0-8.17,10.08A102,102,0,0,0,442.34,281c-.6,1.2-1.22,2.48-1.76,3.71L439.09,288c-1,2.14-2,4.24-3.06,6.24a45,45,0,0,1-7.61,10.54c-.74.72-1.5,1.41-2.29,2.06a26.54,26.54,0,0,1-2.36,1.74,25.51,25.51,0,0,1-5.23,2.6,19.62,19.62,0,0,1-10.8.92,14.44,14.44,0,0,1-8.41-5.42,23.41,23.41,0,0,1-4.5-10.63,27.42,27.42,0,0,1-.31-6.07,21.63,21.63,0,0,1,.35-3c.16-1.05.42-2.09.67-3.14A49.69,49.69,0,0,1,401,271.48c4.77-8.07,11.51-15.39,18.25-23.28a136.07,136.07,0,0,0,9.72-12.54,71.33,71.33,0,0,0,7.63-14.4,68.73,68.73,0,0,0,4.07-17.65,9.68,9.68,0,0,0,1.75-2.89c4.07-10.11,2.13-24.05-1.61-33.9a55.69,55.69,0,0,0-19.57-25.29,1.25,1.25,0,0,0-1.8,1.64,28.79,28.79,0,0,1,3.26,12.2c.36,6.69-1,13.33-1.67,20s-.75,13.63,2,19.74c1.74,3.94,6.51,8.79,11.05,10.12a64.28,64.28,0,0,1-4.8,12.84c-4.22,8.61-10.82,15.73-17.91,22.89s-14.86,14.43-21.09,23.67A60.28,60.28,0,0,0,382.56,280c-.42,1.42-.84,2.84-1.14,4.3a33.74,33.74,0,0,0-.75,4.55,41.28,41.28,0,0,0,.11,9.23,37.33,37.33,0,0,0,6.81,17.53,30.51,30.51,0,0,0,7.22,7,29.27,29.27,0,0,0,9.38,4.22,34.4,34.4,0,0,0,19.4-1.07,40.73,40.73,0,0,0,8.53-4.07,38.47,38.47,0,0,0,3.85-2.75q1.78-1.47,3.41-3.06a57.85,57.85,0,0,0,9.16-11.93,149,149,0,0,0,1.65,15.5c1.21,7.7,2.32,15.43,2.07,23.22-.39,12.35-13.57,20.84-13.57,20.84-4,2.63-4.51,6.95-4.52,11.73,0,6.47,2.14,13.43,2.35,18.78.36,9-5.78,9.39-6,19.68S438.14,424.5,445.37,424.5Z"/><path class="cls-8" d="M536,269.75c-24.56,5.42-26,39.36-26,39.36,18,8.31,27.08,3.25,27.08,3.25-4,9.39,2.17,20.95,2.17,20.95s-4.34,15.16,12.27,17.69c5.73.87,11.74-.39,17.25-1.88,5.84-1.58,11.89-5.1,18.06-3.48s7.68,6.94,12.21,10.64c8,6.51,13.2.74,17.67-4.94S628.09,350,628.09,350c-5.66-11.8-21.11-8.79-21.11-8.79,8.6-6.56,15.94-2.17,15.94-2.17,6.39-7.83,12.69-3.57,12.69-3.57a23.27,23.27,0,0,0-21.52-6.82c6.68-7.61,14-3.17,14-3.17a5.74,5.74,0,0,1,7.67-1.35,35.56,35.56,0,0,0-6.2-5.58,17.29,17.29,0,0,0-20.22.56c-14.11,10.64-34.65,14.79-51.39,7.72,0,0,5.42-18.78,8.67-35.75S560.52,264.34,536,269.75Z"/><path class="cls-9" d="M1064.63,242.24s-32.5,10.83-42.79,11.56-9.75-6-10.11-18.24-7.94-10.47-7.94-10.47c9.57-5.42,16.43,6.68,16.43,6.68,1.5-4.51-2.21-13.87-10.34-13.75a6.85,6.85,0,0,0-.68-3.67,7,7,0,0,0-3.25-3.16c24-4,20.23,18.05,20.23,18.05l26.72-11.1C1054.16,235.74,1064.63,242.24,1064.63,242.24Z"/><path class="cls-10" d="M1195.7,424.5c-7.22,0-8.12,8.13-8.12,8.13-5.78-11.74,6.14-22,6.14-22-10.47,2.71-11.56,11.2-11.56,11.2-10.11.18-10.65,7.76-10.65,7.76a23.23,23.23,0,0,1,7.94-21.12c-10.11.54-11.43,9.29-11.43,9.29-4.07.62-5.54,5-5.54,5a35.79,35.79,0,0,1-.56-8.33,17.3,17.3,0,0,1,12.95-15.54l12.17-3.21c2.53-28.89-9-31.42-9-31.42s-34-14.76-34.3-46.58c-.37-41.53-26.19-55-26.19-55-57.77-23.83-51.09-46.31-52-51.73,33,.82,47.12-24,47.12-24-30.69,18-49.29,15.34-49.29,15.34-11.59-.62-37.16-22-43.74-27.69-11.38-.49-18.14-10-12.32-24,6.5-15.7.27-18.41.27-18.41,11.1,1.35,13.16,14.83,13.16,14.83,5.66-13.62-5.49-19.82-5.49-19.82,2-7.54-4.15-9.37-4.15-9.37,22.67-3.42,22.71,22,21.72,32.9,12.65,14.17,26.75,9.06,36.15,25.42.84-6.36,8.71-14.53,14-18.22s11.33-6,17.07-8.86a30.65,30.65,0,0,0,13.28-12c-2.74,3.32-7.42,4.62-11.69,4s-7.34-3.75-11.32-5.41c-8.49-3.55-1.8,8.67-1.8,8.67-15.54-6.38-16.62-19.86-7.23-23.48s21.31,17.34,19.86-1.8c-1.12-14.83-13.08-12.31-18.41-10.43a6.36,6.36,0,0,1-6.71-1.44c-4.4-4.55,1.29-11.24,1.29-11.24-4.33-4-.36-9-.36-9l35.75-9.75c-4.06-24.37,32.77-11.37,40.62-30.33,1.65,14-6.5,16.25-6.5,16.25,52.55,1.08,47.13,67.7,47.13,67.7-3.79-23.29-17.88-30.87-17.88-30.87,21.13,26-16.25,52,8.67,80.71-14.76-3.69-20.11-17.18-21.38-21.11,3.27,11.11-.34,23.09-3.69,34.26-3.46,11.53-6.57,24.29-1.62,35.27,4.27,9.45,13.59,15.43,20.34,23.31a50.5,50.5,0,0,1,3.89,5.16,116.82,116.82,0,0,1,8.17,10.08,102,102,0,0,1,8.33,13.49c.6,1.2,1.22,2.48,1.76,3.71L1202,288c1,2.14,2,4.24,3.06,6.24a44.71,44.71,0,0,0,7.62,10.54c.73.72,1.49,1.41,2.28,2.06a26.54,26.54,0,0,0,2.36,1.74,25.33,25.33,0,0,0,5.24,2.6,19.59,19.59,0,0,0,10.79.92,14.44,14.44,0,0,0,8.41-5.42,23.41,23.41,0,0,0,4.5-10.63,27.42,27.42,0,0,0,.31-6.07,21.63,21.63,0,0,0-.35-3c-.16-1.05-.42-2.09-.67-3.14a49.69,49.69,0,0,0-5.41-12.31c-4.77-8.07-11.51-15.39-18.25-23.28a136.07,136.07,0,0,1-9.72-12.54,71.33,71.33,0,0,1-7.63-14.4,68.73,68.73,0,0,1-4.07-17.65,9.68,9.68,0,0,1-1.75-2.89c-4.06-10.11-2.13-24.05,1.62-33.9a55.67,55.67,0,0,1,19.56-25.29,1.25,1.25,0,0,1,1.8,1.64,28.64,28.64,0,0,0-3.25,12.2c-.37,6.69,1,13.33,1.66,20s.76,13.63-2,19.74c-1.75,3.94-6.52,8.79-11.06,10.12a64.28,64.28,0,0,0,4.8,12.84c4.22,8.61,10.82,15.73,17.91,22.89s14.86,14.43,21.09,23.67a60.28,60.28,0,0,1,7.64,15.34c.42,1.42.84,2.84,1.14,4.3a35.4,35.4,0,0,1,.76,4.55,41.88,41.88,0,0,1-.12,9.23,37.33,37.33,0,0,1-6.81,17.53,30.14,30.14,0,0,1-7.22,7,29.27,29.27,0,0,1-9.38,4.22,34.36,34.36,0,0,1-19.39-1.07,40.57,40.57,0,0,1-8.54-4.07,38.47,38.47,0,0,1-3.85-2.75q-1.78-1.47-3.41-3.06a58.2,58.2,0,0,1-9.16-11.93,146.32,146.32,0,0,1-1.65,15.5c-1.21,7.7-2.32,15.43-2.07,23.22.39,12.35,13.57,20.84,13.57,20.84,4,2.63,4.51,6.95,4.52,11.73,0,6.47-2.13,13.43-2.35,18.78-.36,9,5.78,9.39,6,19.68S1202.93,424.5,1195.7,424.5Z"/><path class="cls-11" d="M1105.11,269.75c24.55,5.42,26,39.36,26,39.36-18,8.31-27.08,3.25-27.08,3.25,4,9.39-2.16,20.95-2.16,20.95s4.33,15.16-12.28,17.69c-5.73.87-11.74-.39-17.25-1.88-5.84-1.58-11.89-5.1-18.06-3.48s-7.67,6.94-12.21,10.64c-8,6.51-13.2.74-17.67-4.94S1013,350,1013,350c5.66-11.8,21.11-8.79,21.11-8.79-8.6-6.56-15.94-2.17-15.94-2.17-6.39-7.83-12.69-3.57-12.69-3.57a23.27,23.27,0,0,1,21.52-6.82c-6.68-7.61-14-3.17-14-3.17a5.74,5.74,0,0,0-7.67-1.35,35.92,35.92,0,0,1,6.2-5.58,17.29,17.29,0,0,1,20.22.56c14.11,10.64,34.65,14.79,51.39,7.72,0,0-5.42-18.78-8.67-35.75S1080.55,264.34,1105.11,269.75Z"/><path class="cls-12" d="M1165.75,449s-131.54,89.17-345.21,89.17S475.32,449,475.32,449l-34.47,9.21S569.29,586.59,820.54,586.59s379.69-128.43,379.69-128.43Z"/></g></g></svg>